<svg width="120" height="39" viewBox="0 0 120 39" fill="none" xmlns="http://www.w3.org/2000/svg">
<path d="M5.98 10.748V21.668C5.98 22.76 6.24867 23.6007 6.786 24.19C7.32333 24.7793 8.112 25.074 9.152 25.074C10.192 25.074 10.9893 24.7793 11.544 24.19C12.0987 23.6007 12.376 22.76 12.376 21.668V10.748H16.822V21.642C16.822 23.2713 16.4753 24.6493 15.782 25.776C15.0887 26.9027 14.1527 27.752 12.974 28.324C11.8127 28.896 10.5127 29.182 9.074 29.182C7.63533 29.182 6.344 28.9047 5.2 28.35C4.07333 27.778 3.18067 26.9287 2.522 25.802C1.86333 24.658 1.534 23.2713 1.534 21.642V10.748H5.98ZM29.044 14.336C30.7427 14.336 32.0947 14.8907 33.1 16C34.1227 17.092 34.634 18.6 34.634 20.524V29H30.214V21.122C30.214 20.1513 29.9627 19.3973 29.46 18.86C28.9574 18.3227 28.2814 18.054 27.432 18.054C26.5827 18.054 25.9067 18.3227 25.404 18.86C24.9014 19.3973 24.65 20.1513 24.65 21.122V29H20.204V14.492H24.65V16.416C25.1007 15.7747 25.7074 15.272 26.47 14.908C27.2327 14.5267 28.0907 14.336 29.044 14.336ZM40.2196 12.984C39.4396 12.984 38.7982 12.7587 38.2956 12.308C37.8102 11.84 37.5676 11.268 37.5676 10.592C37.5676 9.89867 37.8102 9.32667 38.2956 8.876C38.7982 8.408 39.4396 8.174 40.2196 8.174C40.9822 8.174 41.6062 8.408 42.0916 8.876C42.5942 9.32667 42.8456 9.89867 42.8456 10.592C42.8456 11.268 42.5942 11.84 42.0916 12.308C41.6062 12.7587 40.9822 12.984 40.2196 12.984ZM42.4296 14.492V29H37.9836V14.492H42.4296ZM53.9975 25.23V29H51.7355C50.1235 29 48.8669 28.61 47.9655 27.83C47.0642 27.0327 46.6135 25.7413 46.6135 23.956V18.184H44.8455V14.492H46.6135V10.956H51.0595V14.492H53.9715V18.184H51.0595V24.008C51.0595 24.4413 51.1635 24.7533 51.3715 24.944C51.5795 25.1347 51.9262 25.23 52.4115 25.23H53.9975ZM55.98 19.848C55.98 18.0453 56.37 16.442 57.15 15.038C57.93 13.6167 59.0134 12.516 60.4 11.736C61.804 10.9387 63.39 10.54 65.158 10.54C67.3247 10.54 69.1794 11.112 70.722 12.256C72.2647 13.4 73.296 14.96 73.816 16.936H68.928C68.564 16.1733 68.044 15.5927 67.368 15.194C66.7094 14.7953 65.9554 14.596 65.106 14.596C63.7367 14.596 62.6274 15.0727 61.778 16.026C60.9287 16.9793 60.504 18.2533 60.504 19.848C60.504 21.4427 60.9287 22.7167 61.778 23.67C62.6274 24.6233 63.7367 25.1 65.106 25.1C65.9554 25.1 66.7094 24.9007 67.368 24.502C68.044 24.1033 68.564 23.5227 68.928 22.76H73.816C73.296 24.736 72.2647 26.296 70.722 27.44C69.1794 28.5667 67.3247 29.13 65.158 29.13C63.39 29.13 61.804 28.74 60.4 27.96C59.0134 27.1627 57.93 26.062 57.15 24.658C56.37 23.254 55.98 21.6507 55.98 19.848ZM83.4027 29.208C81.9814 29.208 80.6987 28.9047 79.5547 28.298C78.4281 27.6913 77.5354 26.8247 76.8767 25.698C76.2354 24.5713 75.9147 23.254 75.9147 21.746C75.9147 20.2553 76.2441 18.9467 76.9027 17.82C77.5614 16.676 78.4627 15.8007 79.6067 15.194C80.7507 14.5873 82.0334 14.284 83.4547 14.284C84.8761 14.284 86.1587 14.5873 87.3027 15.194C88.4467 15.8007 89.3481 16.676 90.0067 17.82C90.6654 18.9467 90.9947 20.2553 90.9947 21.746C90.9947 23.2367 90.6567 24.554 89.9807 25.698C89.3221 26.8247 88.4121 27.6913 87.2507 28.298C86.1067 28.9047 84.8241 29.208 83.4027 29.208ZM83.4027 25.36C84.2521 25.36 84.9714 25.048 85.5607 24.424C86.1674 23.8 86.4707 22.9073 86.4707 21.746C86.4707 20.5847 86.1761 19.692 85.5867 19.068C85.0147 18.444 84.3041 18.132 83.4547 18.132C82.5881 18.132 81.8687 18.444 81.2967 19.068C80.7247 19.6747 80.4387 20.5673 80.4387 21.746C80.4387 22.9073 80.7161 23.8 81.2707 24.424C81.8427 25.048 82.5534 25.36 83.4027 25.36ZM98.0594 16.91C98.5794 16.1127 99.2294 15.4887 100.009 15.038C100.789 14.57 101.656 14.336 102.609 14.336V19.042H101.387C100.278 19.042 99.4461 19.2847 98.8914 19.77C98.3367 20.238 98.0594 21.07 98.0594 22.266V29H93.6134V14.492H98.0594V16.91ZM118.67 21.512C118.67 21.928 118.645 22.3613 118.593 22.812H108.531C108.6 23.7133 108.886 24.4067 109.388 24.892C109.908 25.36 110.541 25.594 111.287 25.594C112.396 25.594 113.167 25.126 113.6 24.19H118.333C118.09 25.1433 117.648 26.0013 117.007 26.764C116.383 27.5267 115.594 28.1247 114.641 28.558C113.687 28.9913 112.621 29.208 111.442 29.208C110.021 29.208 108.756 28.9047 107.646 28.298C106.537 27.6913 105.67 26.8247 105.046 25.698C104.422 24.5713 104.11 23.254 104.11 21.746C104.11 20.238 104.414 18.9207 105.02 17.794C105.644 16.6673 106.511 15.8007 107.62 15.194C108.73 14.5873 110.004 14.284 111.442 14.284C112.847 14.284 114.095 14.5787 115.187 15.168C116.279 15.7573 117.128 16.598 117.735 17.69C118.359 18.782 118.67 20.056 118.67 21.512ZM114.121 20.342C114.121 19.5793 113.861 18.9727 113.341 18.522C112.821 18.0713 112.171 17.846 111.391 17.846C110.645 17.846 110.013 18.0627 109.493 18.496C108.99 18.9293 108.678 19.5447 108.557 20.342H114.121Z" fill="black"/>
</svg>
